<?xml version="1.0" standalone="no"?>
<!DOCTYPE svg PUBLIC "-//W3C//DTD SVG 20010904//EN"
 "http://www.w3.org/TR/2001/REC-SVG-20010904/DTD/svg10.dtd">
<svg version="1.0" xmlns="http://www.w3.org/2000/svg"
 width="512.000000pt" height="512.000000pt" viewBox="0 0 512.000000 512.000000"
 preserveAspectRatio="xMidYMid meet">
<metadata>
Created by potrace 1.14, written by Peter Selinger 2001-2017
</metadata>
<g transform="translate(0.000000,512.000000) scale(0.100000,-0.100000)"
fill="#000000" stroke="none">
<path d="M2455 4536 c-186 -100 -381 -209 -392 -218 -7 -5 -17 -25 -23 -44
-31 -93 73 -160 162 -106 75 45 349 192 359 192 5 0 76 -37 157 -81 224 -125
234 -130 267 -131 81 -3 128 86 83 154 -18 27 -477 278 -508 278 -14 0 -61
-20 -105 -44z"/>
<path d="M1168 3806 c-57 -30 -123 -65 -148 -79 -79 -45 -124 -69 -172 -94
-25 -14 -57 -36 -70 -50 -23 -25 -23 -25 -24 -316 -1 -161 3 -302 8 -315 28
-77 128 -86 174 -17 15 22 17 53 17 216 1 167 3 189 17 189 9 0 20 -4 25 -9
13 -12 96 -59 201 -112 78 -39 82 -40 115 -26 45 18 61 39 66 85 6 56 -19 80
-172 163 -74 41 -135 76 -135 79 0 4 47 32 213 121 67 37 86 56 93 96 8 41 -6
76 -38 96 -50 32 -63 30 -170 -27z"/>
<path d="M3805 3846 c-61 -27 -83 -100 -45 -148 11 -14 80 -59 155 -99 74 -41
135 -76 135 -79 0 -5 -31 -23 -170 -97 -47 -25 -98 -59 -114 -75 -24 -26 -27
-37 -23 -70 6 -47 21 -67 66 -85 31 -13 37 -12 105 21 39 19 112 57 161 85
l91 50 0 -200 c1 -214 3 -222 58 -251 48 -26 117 1 134 50 5 15 8 158 8 319
-1 289 -1 292 -24 316 -12 13 -35 30 -50 38 -14 8 -78 43 -142 77 -308 170
-301 167 -345 148z"/>
<path d="M2370 3537 c-26 -14 -58 -42 -75 -66 l-30 -43 0 -366 c0 -363 0 -367
22 -403 13 -20 42 -49 65 -65 l41 -29 366 -5 366 -5 130 -131 c149 -149 168
-164 210 -164 34 0 82 38 90 73 3 12 4 263 3 559 l-3 536 -30 44 c-18 25 -49
52 -75 65 -44 22 -49 22 -540 22 l-495 1 -45 -23z m990 -552 c0 -206 -2 -375
-5 -375 -2 0 -29 26 -60 57 -98 100 -60 93 -472 93 l-363 0 0 300 0 300 450 0
450 0 0 -375z"/>
<path d="M1680 2843 c-44 -21 -88 -65 -105 -106 -11 -26 -14 -138 -15 -565 0
-486 1 -536 17 -562 20 -34 56 -51 98 -48 24 2 61 33 179 150 l149 148 342 0
c384 0 404 3 462 66 44 48 53 87 53 231 0 133 -7 161 -50 186 -33 20 -60 21
-95 5 -44 -20 -55 -55 -55 -178 l0 -110 -363 0 -364 0 -39 -29 c-21 -15 -57
-49 -79 -74 -22 -26 -43 -47 -47 -47 -5 0 -8 169 -8 375 l0 375 111 0 c121 0
157 12 178 57 22 49 7 99 -39 126 -41 24 -279 24 -330 0z"/>
<path d="M840 2233 c-39 -11 -64 -31 -75 -58 -9 -21 -12 -114 -11 -321 1 -241
4 -294 16 -309 18 -22 62 -50 155 -99 39 -20 97 -53 130 -72 33 -18 96 -52
141 -75 78 -39 82 -40 115 -26 45 18 61 39 66 86 4 30 -1 44 -19 65 -13 15
-108 73 -213 130 l-190 104 -1 256 c-1 252 -2 257 -24 281 -25 27 -67 44 -90
38z"/>
<path d="M4253 2232 c-31 -3 -82 -48 -84 -75 -1 -7 -2 -121 -3 -254 -1 -230
-2 -243 -21 -257 -11 -9 -23 -16 -26 -16 -4 0 -78 -40 -165 -90 -86 -49 -161
-90 -165 -90 -4 0 -17 -13 -28 -29 -37 -52 -22 -119 34 -146 45 -21 62 -19
120 13 435 242 434 242 444 281 13 53 8 591 -6 616 -16 29 -63 51 -100 47z"/>
<path d="M2493 1246 l-28 -24 -3 -206 -3 -206 -67 36 c-37 20 -103 57 -147 81
-105 58 -155 60 -190 6 -26 -39 -27 -86 -2 -116 30 -35 474 -277 508 -277 15
0 71 25 124 55 54 30 99 55 100 55 2 0 45 24 97 53 51 28 110 61 132 72 69 36
90 95 55 152 -13 21 -33 36 -56 42 -42 12 -60 4 -300 -131 l-53 -29 0 201 0
202 -29 29 c-39 38 -97 40 -138 5z"/>
</g>
</svg>
